<svg xmlns="http://www.w3.org/2000/svg" width="300" height="300" viewBox="0 0 1421 995">
  <defs>
    <style>
      .cls-1 {
        fill: #c6dce4;
        stroke: #c6dce4;
        stroke-width: 12.5px;
        fill-rule: evenodd;
      }
    </style>
  </defs>
  <path id="World_Wide_Web_Search_1" data-name="World Wide Web Search 1" class="cls-1" d="M1393.88,853.283a67.72,67.72,0,0,1-94.23,17.15L1021.26,677.826A67.528,67.528,0,0,1,992.137,619.8,244.4,244.4,0,0,1,856.4,693.653a248.637,248.637,0,0,1-54.693,3.791c-77.752,120.886-213.329,196.5-359.194,196.5-235.2,0-426.541-191.3-426.541-426.442S207.32,41.058,442.517,41.058c133.385,0,256.483,60.6,338,166.294a245.438,245.438,0,0,1,171.912,41.56c101.373,70.184,133.793,203.346,81.1,310.826a67.592,67.592,0,0,1,64.79,6.726l278.46,192.6A67.735,67.735,0,0,1,1393.88,853.283ZM312.6,832.352a615.161,615.161,0,0,1-68.275-140.176H127.243A389.221,389.221,0,0,0,312.6,832.352Zm-209.265-178H232.759a701.1,701.1,0,0,1-24.675-167.292H55.645A384.484,384.484,0,0,0,103.333,654.351ZM55.645,447.943H208.084A701.2,701.2,0,0,1,232.856,280.3H103.532A384.475,384.475,0,0,0,55.645,447.943ZM127.5,242.477H244.441a615,615,0,0,1,68.141-139.823A389.2,389.2,0,0,0,127.5,242.477ZM422.945,80.708A391.47,391.47,0,0,0,370.6,86.973c-36.238,45.951-65.03,98.549-85.865,155.5H422.945V80.708Zm0,199.594H272.22a660.653,660.653,0,0,0-26.262,167.641H422.945V280.3Zm0,206.757H245.958a660.653,660.653,0,0,0,26.167,167.292h150.82V487.059Zm0,205.117H284.607c20.849,57.089,49.691,109.806,86.011,155.855a391.521,391.521,0,0,0,52.327,6.261V692.176Zm224.844-57.489c-1.608,6.565-3.1,13.184-4.886,19.664h29.851c-0.2-.136-0.4-0.258-0.6-0.395A249.527,249.527,0,0,1,647.789,634.687Zm110.135,57.489H631.133C613.428,744,589.741,792.519,560.44,836.225A390.609,390.609,0,0,0,757.924,692.176ZM462.09,854.25a388.469,388.469,0,0,0,41.608-4.4c36.738-46.166,66.205-99.493,87.445-157.678H462.09V854.25Zm0-199.9H603.605q7.645-26.027,13.118-53.109a245.088,245.088,0,0,1-46.7-105.636c-0.52-2.848-.926-5.7-1.346-8.547H462.09V654.351Zm0-206.408H565.983a244.363,244.363,0,0,1,43.73-136.668c0.819-1.182,1.694-2.3,2.529-3.462l-1.215.3c-2.3-9.361-4.844-18.625-7.557-27.81H462.09V447.943Zm0-367.2V242.477H590.96c-21.332-58.168-50.917-111.693-87.272-157.418A402.1,402.1,0,0,0,462.09,80.745Zm98.149,17.638c29.176,43.58,53.074,92.262,70.848,144.094h50.9a246.549,246.549,0,0,1,55.83-25.624A384.761,384.761,0,0,0,560.239,98.383ZM981.194,420.689a170.406,170.406,0,0,0-71.174-110.41c-77.873-53.892-185.1-34.411-239.028,43.418-53.856,77.937-34.372,185.12,43.5,238.945,77.85,53.9,185.082,34.434,239.028-43.44A170.619,170.619,0,0,0,981.194,420.689Zm-75.208,28.17c0-44.637-40.513-80.822-90.484-80.822s-90.488,36.185-90.488,80.822c0,38.193,29.673,70.176,69.549,78.619-3.247,14.287-8.661,31.134-17.157,39.546,16.371,0.037,32.514-19.9,43.58-37.507C868.4,526.982,905.986,491.845,905.986,448.859Z"/>
</svg>
